HIERARCHY
ROOT Hips
{
	OFFSET 0.000000 0.000000 0.000000
	CHANNELS 6 Xposition Yposition Zposition Zrotation Yrotation Xrotation 
	JOINT LHipJoint
	{
		OFFSET 0.000000 0.000000 0.000000
		CHANNELS 3 Zrotation Yrotation Xrotation
		JOINT LeftUpLeg
		{
			OFFSET 1.363060 -1.794630 0.839290
			CHANNELS 3 Zrotation Yrotation Xrotation
			JOINT LeftLeg
			{
				OFFSET 2.448110 -6.726130 0.000000
				CHANNELS 3 Zrotation Yrotation Xrotation
				JOINT LeftFoot
				{
					OFFSET 2.562200 -7.039590 0.000000
					CHANNELS 3 Zrotation Yrotation Xrotation
					JOINT LeftToeBase
					{
						OFFSET 0.157640 -0.433110 2.322550
						CHANNELS 3 Zrotation Yrotation Xrotation
						End Site
						{
							OFFSET 0.000000 0.000000 0.000000
						}
					}
				}
			}
		}
	}
	JOINT RHipJoint
	{
		OFFSET 0.000000 0.000000 0.000000
		CHANNELS 3 Zrotation Yrotation Xrotation
		JOINT RightUpLeg
		{
			OFFSET -1.305520 -1.794630 0.839290
			CHANNELS 3 Zrotation Yrotation Xrotation
			JOINT RightLeg
			{
				OFFSET -2.542530 -6.985550 0.000000
				CHANNELS 3 Zrotation Yrotation Xrotation
				JOINT RightFoot
				{
					OFFSET -2.568260 -7.056230 0.000000
					CHANNELS 3 Zrotation Yrotation Xrotation
					JOINT RightToeBase
					{
						OFFSET -0.164730 -0.452590 2.363150
						CHANNELS 3 Zrotation Yrotation Xrotation
						End Site
						{
							OFFSET 0.000000 0.000000 0.000000
						}
					}
				}
			}
		}
	}
}
MOTION
Frames: 14
Frame Time: 0.008333
-0.961085 17.074757 0.006182 23.264968 81.141311 33.075690 -10.063027 0.795796 3.328411 -8.498207 -2.762317 -28.785142 -2.566023 -0.077077 11.410943 -0.364927 -3.287064 5.144946 -0.362400 0.000000 -33.859300 10.549285 -3.398583 -1.154334 6.241556 -8.069841 -8.093707 -0.064780 -3.224763 44.069792 0.061683 6.108172 11.846464 1.996100 0.000000 -72.720600
-0.799832 17.081064 0.033951 23.960762 80.566184 33.688755 -10.001411 0.889289 3.192904 -9.081483 -2.146409 -28.389595 -2.623319 -0.061612 11.970524 -0.359671 -3.237728 4.782208 -0.334001 -0.000000 -33.682800 10.816119 -3.309018 -1.186523 5.639833 -8.612611 -9.753002 -0.364585 -3.348334 47.000586 -0.197847 4.889695 13.764751 1.863800 0.000000 -71.915600
-0.642328 17.088035 0.060488 24.076415 79.931970 33.750434 -9.944488 0.979927 3.070966 -9.557559 -1.593651 -27.960419 -2.669130 -0.053608 12.456120 -0.342132 -3.099164 4.296381 -0.286400 0.000001 -33.489200 11.041858 -3.181449 -1.207721 5.183698 -8.971947 -11.423464 -0.633745 -3.451463 49.842727 -0.483356 3.253024 15.300952 1.475100 0.000000 -70.621400
-0.488358 17.096098 0.086286 23.806555 79.244225 33.445870 -9.890426 1.065283 2.960920 -9.944122 -1.119662 -27.463209 -2.703785 -0.056163 12.827684 -0.309380 -2.836181 3.731813 -0.217600 0.000000 -33.299100 11.232097 -3.025061 -1.222579 4.847896 -9.169229 -13.087419 -0.871467 -3.543189 52.570421 -0.786150 1.235595 16.360180 0.832500 0.000000 -68.908900
-0.337445 17.105904 0.110563 23.118292 78.509735 32.738671 -9.850517 1.144689 2.857930 -10.226572 -0.677801 -26.910270 -2.725923 -0.066673 13.090210 -0.263234 -2.476246 3.115638 -0.138100 0.000000 -33.153300 11.378595 -2.850442 -1.227480 4.661774 -9.200881 -14.726331 -1.081150 -3.625964 55.146633 -1.099814 -1.108173 16.895396 -0.024800 -0.000000 -66.917800
-0.189150 17.117863 0.133524 22.132793 77.735566 31.742636 -9.824725 1.218021 2.758318 -10.418320 -0.253067 -26.291758 -2.736717 -0.085510 13.227392 -0.204557 -2.024051 2.487397 -0.052800 0.000000 -33.086500 11.486581 -2.666584 -1.223558 4.608987 -9.090405 -16.327378 -1.265413 -3.703760 57.542433 -1.416607 -3.662816 16.879043 -1.009200 -0.000000 -64.648600
-0.042914 17.132332 0.155167 20.920026 76.929271 30.523054 -9.814960 1.285936 2.658244 -10.526790 0.181686 -25.612145 -2.737362 -0.111447 13.238095 -0.136140 -1.503435 1.879075 0.031800 0.000000 -33.130700 11.558877 -2.481744 -1.209864 4.681963 -8.857417 -17.878986 -1.426542 -3.777566 59.725898 -1.728026 -6.286588 16.323717 -2.008000 0.000000 -62.097800
0.101620 17.149402 0.175735 19.579388 76.097548 29.172935 -9.819518 1.349608 2.553627 -10.569168 0.643338 -24.869554 -2.730028 -0.143463 13.120141 -0.061106 -0.935836 1.321687 0.111700 -0.000001 -33.305000 11.601635 -2.301758 -1.187638 4.855948 -8.528809 -19.368957 -1.565241 -3.847893 61.667440 -2.023393 -8.816875 15.275335 -2.900399 0.000000 -59.259900
0.245019 17.169064 0.195226 18.145249 75.252758 27.726405 -9.840384 1.410133 2.442414 -10.548542 1.157759 -24.083169 -2.716187 -0.178985 12.892460 0.015532 -0.361001 0.833270 0.182300 -0.000000 -33.616500 11.616310 -2.132991 -1.154419 5.125837 -8.124229 -20.791326 -1.680613 -3.912521 63.337052 -2.291035 -11.103326 13.816722 -3.587799 -0.000000 -56.151800
0.387473 17.190973 0.213959 16.695164 74.402450 26.254770 -9.874759 1.468657 2.320996 -10.482109 1.733733 -23.252996 -2.698520 -0.216397 12.563995 0.089612 0.194547 0.430281 0.242900 -0.000000 -34.053900 11.608562 -1.978177 -1.113176 5.461523 -7.673031 -22.134104 -1.770324 -3.970499 64.712219 -2.517436 -13.007905 12.049005 -4.003800 0.000000 -52.806901
0.529345 17.214683 0.232169 15.269158 73.559984 24.800434 -9.921755 1.526435 2.190248 -10.378116 2.377205 -22.398425 -2.679127 -0.253600 12.158729 0.156678 0.699670 0.117735 0.292700 -0.000000 -34.592000 11.581009 -1.840131 -1.062854 5.846853 -7.198816 -23.397752 -1.831241 -4.019500 65.776393 -2.690323 -14.434277 10.092046 -4.132500 0.000000 -49.309900
0.670721 17.239527 0.250259 13.917528 72.735552 23.412552 -9.978303 1.584568 2.050703 -10.250691 3.082248 -21.527821 -2.660333 -0.289192 11.695671 0.213739 1.135663 -0.104574 0.332400 -0.000000 -35.195300 11.537752 -1.719056 -1.005725 6.255840 -6.729055 -24.581240 -1.860264 -4.058343 66.521260 -2.799091 -15.323595 8.065475 -4.000800 0.000000 -45.774300
0.811533 17.264802 0.268539 12.666628 71.937605 22.113662 -10.042353 1.643680 1.900546 -10.109572 3.848260 -20.644518 -2.644300 -0.321622 11.194679 0.258063 1.482835 -0.243623 0.362000 -0.000000 -35.827700 11.481828 -1.613978 -0.946175 6.667415 -6.288407 -25.677993 -1.855155 -4.086170 66.944119 -2.837172 -15.662384 6.081986 -3.670600 -0.000001 -42.349600
0.951846 17.289702 0.287539 11.550239 71.176444 20.943266 -10.110038 1.704782 1.745323 -9.968039 4.653714 -19.763816 -2.632661 -0.350916 10.674439 0.289425 1.740413 -0.311151 0.383199 -0.000000 -36.448800 11.416928 -1.523328 -0.884083 7.062216 -5.897950 -26.702237 -1.815222 -4.102482 67.052586 -2.803629 -15.479272 4.242066 -3.221400 0.000000 -39.234100
